<?xml version="1.0" standalone="no"?>
<!DOCTYPE svg PUBLIC "-//W3C//DTD SVG 20010904//EN"
 "http://www.w3.org/TR/2001/REC-SVG-20010904/DTD/svg10.dtd">
<svg xmlns="http://www.w3.org/2000/svg"
 width="512.000000pt" height="512.000000pt" viewBox="0 0 512.000000 512.000000"
 preserveAspectRatio="xMidYMid meet">
<metadata>
Created by potrace 1.11, written by Peter Selinger 2001-2013
</metadata>
<g transform="translate(0.000000,512.000000) scale(0.100000,-0.100000)"
fill="#000000" stroke="none">
<path d="M2325 5114 c-16 -2 -80 -11 -142 -20 -422 -57 -875 -255 -1228 -534
-103 -81 -314 -292 -395 -395 -227 -286 -405 -649 -490 -997 -55 -223 -65
-319 -65 -608 0 -289 10 -385 65 -608 85 -348 263 -711 490 -997 81 -103 292
-314 395 -395 288 -228 646 -404 997 -490 222 -55 318 -65 608 -65 289 0 385
10 608 65 348 85 711 263 997 490 103 81 314 292 395 395 227 286 405 649 490
997 55 223 65 319 65 608 0 289 -10 385 -65 608 -85 348 -263 711 -490 997
-81 103 -292 314 -395 395 -349 276 -777 464 -1220 536 -95 15 -545 28 -620
18z m45 -1524 l0 -120 -355 0 -355 0 0 -1015 0 -1015 -140 0 -140 0 0 1015 0
1015 -355 0 -355 0 0 120 0 120 850 0 850 0 0 -120z m620 -678 c0 -763 1 -802
20 -876 66 -259 257 -386 578 -386 261 1 431 90 522 274 69 138 69 142 70
1014 l0 772 141 0 140 0 -4 -807 c-4 -878 -3 -870 -62 -1016 -58 -146 -182
-289 -311 -360 -163 -91 -321 -122 -567 -114 -193 6 -252 20 -397 89 -90 43
-117 62 -186 132 -113 114 -171 223 -211 401 -14 60 -17 188 -20 873 l-4 802
145 0 146 0 0 -798z"/>
</g>
</svg>
